<mxfile host="Electron" modified="2023-12-13T09:56:56.211Z" agent="Mozilla/5.0 (Macintosh; Intel Mac OS X 10_15_7) AppleWebKit/537.36 (KHTML, like Gecko) draw.io/21.6.8 Chrome/114.0.5735.289 Electron/25.5.0 Safari/537.36" etag="7ZnKGmKurMSIHoUGsG6f" version="21.6.8" type="device">
  <diagram name="Page-1" id="q8rNbWmIafpwbt5BPufZ">
    <mxGraphModel dx="2674" dy="1161" grid="1" gridSize="10" guides="1" tooltips="1" connect="1" arrows="1" fold="1" page="1" pageScale="1" pageWidth="827" pageHeight="1169" math="0" shadow="0">
      <root>
        <mxCell id="0" />
        <mxCell id="1" parent="0" />
        <mxCell id="2JGOLgUa3NeXFZNGk4ip-1" value="AWS Cloud" style="points=[[0,0],[0.25,0],[0.5,0],[0.75,0],[1,0],[1,0.25],[1,0.5],[1,0.75],[1,1],[0.75,1],[0.5,1],[0.25,1],[0,1],[0,0.75],[0,0.5],[0,0.25]];outlineConnect=0;gradientColor=none;html=1;whiteSpace=wrap;fontSize=12;fontStyle=0;container=1;pointerEvents=0;collapsible=0;recursiveResize=0;shape=mxgraph.aws4.group;grIcon=mxgraph.aws4.group_aws_cloud_alt;strokeColor=#232F3E;fillColor=none;verticalAlign=top;align=left;spacingLeft=30;fontColor=#232F3E;dashed=0;" parent="1" vertex="1">
          <mxGeometry x="200" y="160" width="1320" height="600" as="geometry" />
        </mxCell>
        <mxCell id="2JGOLgUa3NeXFZNGk4ip-4" style="edgeStyle=orthogonalEdgeStyle;rounded=0;orthogonalLoop=1;jettySize=auto;html=1;entryX=0.5;entryY=0;entryDx=0;entryDy=0;entryPerimeter=0;" parent="2JGOLgUa3NeXFZNGk4ip-1" source="2JGOLgUa3NeXFZNGk4ip-3" target="2JGOLgUa3NeXFZNGk4ip-2" edge="1">
          <mxGeometry relative="1" as="geometry" />
        </mxCell>
        <mxCell id="2JGOLgUa3NeXFZNGk4ip-16" style="edgeStyle=orthogonalEdgeStyle;rounded=0;orthogonalLoop=1;jettySize=auto;html=1;entryX=0;entryY=0.5;entryDx=0;entryDy=0;entryPerimeter=0;" parent="2JGOLgUa3NeXFZNGk4ip-1" source="2JGOLgUa3NeXFZNGk4ip-3" target="2JGOLgUa3NeXFZNGk4ip-6" edge="1">
          <mxGeometry relative="1" as="geometry" />
        </mxCell>
        <mxCell id="2JGOLgUa3NeXFZNGk4ip-3" value="Cloudfront" style="sketch=0;points=[[0,0,0],[0.25,0,0],[0.5,0,0],[0.75,0,0],[1,0,0],[0,1,0],[0.25,1,0],[0.5,1,0],[0.75,1,0],[1,1,0],[0,0.25,0],[0,0.5,0],[0,0.75,0],[1,0.25,0],[1,0.5,0],[1,0.75,0]];outlineConnect=0;fontColor=#232F3E;gradientColor=#945DF2;gradientDirection=north;fillColor=#5A30B5;strokeColor=#ffffff;dashed=0;verticalLabelPosition=bottom;verticalAlign=top;align=center;html=1;fontSize=12;fontStyle=0;aspect=fixed;shape=mxgraph.aws4.resourceIcon;resIcon=mxgraph.aws4.cloudfront;" parent="2JGOLgUa3NeXFZNGk4ip-1" vertex="1">
          <mxGeometry x="110" y="245" width="70" height="70" as="geometry" />
        </mxCell>
        <mxCell id="2JGOLgUa3NeXFZNGk4ip-2" value="Website&lt;br&gt;Asset" style="sketch=0;points=[[0,0,0],[0.25,0,0],[0.5,0,0],[0.75,0,0],[1,0,0],[0,1,0],[0.25,1,0],[0.5,1,0],[0.75,1,0],[1,1,0],[0,0.25,0],[0,0.5,0],[0,0.75,0],[1,0.25,0],[1,0.5,0],[1,0.75,0]];outlineConnect=0;fontColor=#232F3E;gradientColor=#60A337;gradientDirection=north;fillColor=#277116;strokeColor=#ffffff;dashed=0;verticalLabelPosition=bottom;verticalAlign=top;align=center;html=1;fontSize=12;fontStyle=0;aspect=fixed;shape=mxgraph.aws4.resourceIcon;resIcon=mxgraph.aws4.s3;" parent="2JGOLgUa3NeXFZNGk4ip-1" vertex="1">
          <mxGeometry x="110" y="385" width="70" height="70" as="geometry" />
        </mxCell>
        <mxCell id="2JGOLgUa3NeXFZNGk4ip-6" value="HTTP&lt;br&gt;API" style="sketch=0;points=[[0,0,0],[0.25,0,0],[0.5,0,0],[0.75,0,0],[1,0,0],[0,1,0],[0.25,1,0],[0.5,1,0],[0.75,1,0],[1,1,0],[0,0.25,0],[0,0.5,0],[0,0.75,0],[1,0.25,0],[1,0.5,0],[1,0.75,0]];outlineConnect=0;fontColor=#232F3E;gradientColor=#945DF2;gradientDirection=north;fillColor=#5A30B5;strokeColor=#ffffff;dashed=0;verticalLabelPosition=bottom;verticalAlign=top;align=center;html=1;fontSize=12;fontStyle=0;aspect=fixed;shape=mxgraph.aws4.resourceIcon;resIcon=mxgraph.aws4.api_gateway;" parent="2JGOLgUa3NeXFZNGk4ip-1" vertex="1">
          <mxGeometry x="276" y="245" width="70" height="70" as="geometry" />
        </mxCell>
        <mxCell id="2JGOLgUa3NeXFZNGk4ip-5" value="VPC" style="points=[[0,0],[0.25,0],[0.5,0],[0.75,0],[1,0],[1,0.25],[1,0.5],[1,0.75],[1,1],[0.75,1],[0.5,1],[0.25,1],[0,1],[0,0.75],[0,0.5],[0,0.25]];outlineConnect=0;gradientColor=none;html=1;whiteSpace=wrap;fontSize=12;fontStyle=0;container=1;pointerEvents=0;collapsible=0;recursiveResize=0;shape=mxgraph.aws4.group;grIcon=mxgraph.aws4.group_vpc;strokeColor=#248814;fillColor=none;verticalAlign=top;align=left;spacingLeft=30;fontColor=#AAB7B8;dashed=0;" parent="2JGOLgUa3NeXFZNGk4ip-1" vertex="1">
          <mxGeometry x="390" y="20" width="750" height="530" as="geometry" />
        </mxCell>
        <mxCell id="ibL_u1QixOGJySQ_XA6_-5" value="private subnet" style="points=[[0,0],[0.25,0],[0.5,0],[0.75,0],[1,0],[1,0.25],[1,0.5],[1,0.75],[1,1],[0.75,1],[0.5,1],[0.25,1],[0,1],[0,0.75],[0,0.5],[0,0.25]];outlineConnect=0;gradientColor=none;html=1;whiteSpace=wrap;fontSize=12;fontStyle=0;container=1;pointerEvents=0;collapsible=0;recursiveResize=0;shape=mxgraph.aws4.group;grIcon=mxgraph.aws4.group_security_group;grStroke=0;strokeColor=#147EBA;fillColor=#E6F2F8;verticalAlign=top;align=left;spacingLeft=30;fontColor=#147EBA;dashed=0;" parent="2JGOLgUa3NeXFZNGk4ip-5" vertex="1">
          <mxGeometry x="40" y="40" width="400" height="440" as="geometry" />
        </mxCell>
        <mxCell id="2JGOLgUa3NeXFZNGk4ip-7" value="GlobalSearch" style="sketch=0;points=[[0,0,0],[0.25,0,0],[0.5,0,0],[0.75,0,0],[1,0,0],[0,1,0],[0.25,1,0],[0.5,1,0],[0.75,1,0],[1,1,0],[0,0.25,0],[0,0.5,0],[0,0.75,0],[1,0.25,0],[1,0.5,0],[1,0.75,0]];outlineConnect=0;fontColor=#232F3E;gradientColor=#F78E04;gradientDirection=north;fillColor=#D05C17;strokeColor=#ffffff;dashed=0;verticalLabelPosition=bottom;verticalAlign=top;align=center;html=1;fontSize=12;fontStyle=0;aspect=fixed;shape=mxgraph.aws4.resourceIcon;resIcon=mxgraph.aws4.lambda;" parent="ibL_u1QixOGJySQ_XA6_-5" vertex="1">
          <mxGeometry x="150" y="185" width="70" height="70" as="geometry" />
        </mxCell>
        <mxCell id="2JGOLgUa3NeXFZNGk4ip-8" value="IndexSearch" style="sketch=0;points=[[0,0,0],[0.25,0,0],[0.5,0,0],[0.75,0,0],[1,0,0],[0,1,0],[0.25,1,0],[0.5,1,0],[0.75,1,0],[1,1,0],[0,0.25,0],[0,0.5,0],[0,0.75,0],[1,0.25,0],[1,0.5,0],[1,0.75,0]];outlineConnect=0;fontColor=#232F3E;gradientColor=#F78E04;gradientDirection=north;fillColor=#D05C17;strokeColor=#ffffff;dashed=0;verticalLabelPosition=bottom;verticalAlign=top;align=center;html=1;fontSize=12;fontStyle=0;aspect=fixed;shape=mxgraph.aws4.resourceIcon;resIcon=mxgraph.aws4.lambda;" parent="ibL_u1QixOGJySQ_XA6_-5" vertex="1">
          <mxGeometry x="150" y="310" width="70" height="70" as="geometry" />
        </mxCell>
        <mxCell id="2JGOLgUa3NeXFZNGk4ip-14" value="EC2&lt;br&gt;Bastion" style="sketch=0;points=[[0,0,0],[0.25,0,0],[0.5,0,0],[0.75,0,0],[1,0,0],[0,1,0],[0.25,1,0],[0.5,1,0],[0.75,1,0],[1,1,0],[0,0.25,0],[0,0.5,0],[0,0.75,0],[1,0.25,0],[1,0.5,0],[1,0.75,0]];outlineConnect=0;fontColor=#232F3E;gradientColor=#F78E04;gradientDirection=north;fillColor=#D05C17;strokeColor=#ffffff;dashed=0;verticalLabelPosition=bottom;verticalAlign=top;align=center;html=1;fontSize=12;fontStyle=0;aspect=fixed;shape=mxgraph.aws4.resourceIcon;resIcon=mxgraph.aws4.ec2;" parent="ibL_u1QixOGJySQ_XA6_-5" vertex="1">
          <mxGeometry x="150" y="60" width="70" height="70" as="geometry" />
        </mxCell>
        <mxCell id="2JGOLgUa3NeXFZNGk4ip-9" value="Isolated subnet" style="points=[[0,0],[0.25,0],[0.5,0],[0.75,0],[1,0],[1,0.25],[1,0.5],[1,0.75],[1,1],[0.75,1],[0.5,1],[0.25,1],[0,1],[0,0.75],[0,0.5],[0,0.25]];outlineConnect=0;gradientColor=none;html=1;whiteSpace=wrap;fontSize=12;fontStyle=0;container=1;pointerEvents=0;collapsible=0;recursiveResize=0;shape=mxgraph.aws4.group;grIcon=mxgraph.aws4.group_security_group;grStroke=0;strokeColor=#147EBA;fillColor=#E6F2F8;verticalAlign=top;align=left;spacingLeft=30;fontColor=#147EBA;dashed=0;" parent="2JGOLgUa3NeXFZNGk4ip-5" vertex="1">
          <mxGeometry x="480" y="40" width="230" height="440" as="geometry" />
        </mxCell>
        <mxCell id="2JGOLgUa3NeXFZNGk4ip-15" value="OpenSearch" style="sketch=0;points=[[0,0,0],[0.25,0,0],[0.5,0,0],[0.75,0,0],[1,0,0],[0,1,0],[0.25,1,0],[0.5,1,0],[0.75,1,0],[1,1,0],[0,0.25,0],[0,0.5,0],[0,0.75,0],[1,0.25,0],[1,0.5,0],[1,0.75,0]];outlineConnect=0;fontColor=#232F3E;gradientColor=#945DF2;gradientDirection=north;fillColor=#5A30B5;strokeColor=#ffffff;dashed=0;verticalLabelPosition=bottom;verticalAlign=top;align=center;html=1;fontSize=12;fontStyle=0;aspect=fixed;shape=mxgraph.aws4.resourceIcon;resIcon=mxgraph.aws4.elasticsearch_service;" parent="2JGOLgUa3NeXFZNGk4ip-9" vertex="1">
          <mxGeometry x="80" y="185" width="70" height="70" as="geometry" />
        </mxCell>
        <mxCell id="aHuirXODaWhUDAWz759R-5" style="edgeStyle=orthogonalEdgeStyle;rounded=0;orthogonalLoop=1;jettySize=auto;html=1;entryX=0;entryY=0.5;entryDx=0;entryDy=0;entryPerimeter=0;" edge="1" parent="2JGOLgUa3NeXFZNGk4ip-5" source="2JGOLgUa3NeXFZNGk4ip-7" target="2JGOLgUa3NeXFZNGk4ip-15">
          <mxGeometry relative="1" as="geometry" />
        </mxCell>
        <mxCell id="aHuirXODaWhUDAWz759R-6" style="edgeStyle=orthogonalEdgeStyle;rounded=0;orthogonalLoop=1;jettySize=auto;html=1;entryX=0;entryY=0.5;entryDx=0;entryDy=0;entryPerimeter=0;" edge="1" parent="2JGOLgUa3NeXFZNGk4ip-5" source="2JGOLgUa3NeXFZNGk4ip-8" target="2JGOLgUa3NeXFZNGk4ip-15">
          <mxGeometry relative="1" as="geometry" />
        </mxCell>
        <mxCell id="aHuirXODaWhUDAWz759R-7" style="edgeStyle=orthogonalEdgeStyle;rounded=0;orthogonalLoop=1;jettySize=auto;html=1;entryX=0;entryY=0.5;entryDx=0;entryDy=0;entryPerimeter=0;" edge="1" parent="2JGOLgUa3NeXFZNGk4ip-5" source="2JGOLgUa3NeXFZNGk4ip-14" target="2JGOLgUa3NeXFZNGk4ip-15">
          <mxGeometry relative="1" as="geometry" />
        </mxCell>
        <mxCell id="aHuirXODaWhUDAWz759R-9" style="edgeStyle=orthogonalEdgeStyle;rounded=0;orthogonalLoop=1;jettySize=auto;html=1;entryX=0;entryY=0.5;entryDx=0;entryDy=0;entryPerimeter=0;" edge="1" parent="2JGOLgUa3NeXFZNGk4ip-1" source="2JGOLgUa3NeXFZNGk4ip-23" target="2JGOLgUa3NeXFZNGk4ip-14">
          <mxGeometry relative="1" as="geometry" />
        </mxCell>
        <mxCell id="2JGOLgUa3NeXFZNGk4ip-23" value="SSM" style="sketch=0;points=[[0,0,0],[0.25,0,0],[0.5,0,0],[0.75,0,0],[1,0,0],[0,1,0],[0.25,1,0],[0.5,1,0],[0.75,1,0],[1,1,0],[0,0.25,0],[0,0.5,0],[0,0.75,0],[1,0.25,0],[1,0.5,0],[1,0.75,0]];points=[[0,0,0],[0.25,0,0],[0.5,0,0],[0.75,0,0],[1,0,0],[0,1,0],[0.25,1,0],[0.5,1,0],[0.75,1,0],[1,1,0],[0,0.25,0],[0,0.5,0],[0,0.75,0],[1,0.25,0],[1,0.5,0],[1,0.75,0]];outlineConnect=0;fontColor=#232F3E;gradientColor=#F34482;gradientDirection=north;fillColor=#BC1356;strokeColor=#ffffff;dashed=0;verticalLabelPosition=bottom;verticalAlign=top;align=center;html=1;fontSize=12;fontStyle=0;aspect=fixed;shape=mxgraph.aws4.resourceIcon;resIcon=mxgraph.aws4.systems_manager;" parent="2JGOLgUa3NeXFZNGk4ip-1" vertex="1">
          <mxGeometry x="110" y="120" width="70" height="70" as="geometry" />
        </mxCell>
        <mxCell id="aHuirXODaWhUDAWz759R-3" style="edgeStyle=orthogonalEdgeStyle;rounded=0;orthogonalLoop=1;jettySize=auto;html=1;entryX=0;entryY=0.5;entryDx=0;entryDy=0;entryPerimeter=0;" edge="1" parent="2JGOLgUa3NeXFZNGk4ip-1" source="2JGOLgUa3NeXFZNGk4ip-6" target="2JGOLgUa3NeXFZNGk4ip-7">
          <mxGeometry relative="1" as="geometry" />
        </mxCell>
        <mxCell id="aHuirXODaWhUDAWz759R-4" style="edgeStyle=orthogonalEdgeStyle;rounded=0;orthogonalLoop=1;jettySize=auto;html=1;entryX=0;entryY=0.5;entryDx=0;entryDy=0;entryPerimeter=0;" edge="1" parent="2JGOLgUa3NeXFZNGk4ip-1" source="2JGOLgUa3NeXFZNGk4ip-6" target="2JGOLgUa3NeXFZNGk4ip-8">
          <mxGeometry relative="1" as="geometry" />
        </mxCell>
        <mxCell id="2JGOLgUa3NeXFZNGk4ip-30" style="edgeStyle=orthogonalEdgeStyle;rounded=0;orthogonalLoop=1;jettySize=auto;html=1;entryX=0;entryY=0.5;entryDx=0;entryDy=0;entryPerimeter=0;" parent="1" source="2JGOLgUa3NeXFZNGk4ip-29" target="2JGOLgUa3NeXFZNGk4ip-3" edge="1">
          <mxGeometry relative="1" as="geometry" />
        </mxCell>
        <mxCell id="2JGOLgUa3NeXFZNGk4ip-29" value="clients" style="sketch=0;outlineConnect=0;gradientColor=none;fontColor=#545B64;strokeColor=none;fillColor=#879196;dashed=0;verticalLabelPosition=bottom;verticalAlign=top;align=center;html=1;fontSize=12;fontStyle=0;aspect=fixed;shape=mxgraph.aws4.illustration_devices;pointerEvents=1" parent="1" vertex="1">
          <mxGeometry x="-60" y="403.5" width="100" height="73" as="geometry" />
        </mxCell>
        <mxCell id="aHuirXODaWhUDAWz759R-8" style="edgeStyle=orthogonalEdgeStyle;rounded=0;orthogonalLoop=1;jettySize=auto;html=1;entryX=0;entryY=0.5;entryDx=0;entryDy=0;entryPerimeter=0;" edge="1" parent="1" source="2JGOLgUa3NeXFZNGk4ip-31" target="2JGOLgUa3NeXFZNGk4ip-23">
          <mxGeometry relative="1" as="geometry" />
        </mxCell>
        <mxCell id="2JGOLgUa3NeXFZNGk4ip-31" value="developers" style="sketch=0;outlineConnect=0;gradientColor=none;fontColor=#545B64;strokeColor=none;fillColor=#879196;dashed=0;verticalLabelPosition=bottom;verticalAlign=top;align=center;html=1;fontSize=12;fontStyle=0;aspect=fixed;shape=mxgraph.aws4.illustration_users;pointerEvents=1" parent="1" vertex="1">
          <mxGeometry x="-50" y="270" width="90" height="90" as="geometry" />
        </mxCell>
      </root>
    </mxGraphModel>
  </diagram>
</mxfile>
